<svg id="ic_google_play_32px" data-name="ic_google play_32px" xmlns="http://www.w3.org/2000/svg" width="120" height="32">
    <defs>
        <linearGradient id="linear-gradient" x1=".915" y1="6.614" x2="-.383" y2="5.945" gradientUnits="objectBoundingBox">
            <stop offset="0" stop-color="#00a0ff"/>
            <stop offset=".007" stop-color="#00a1ff"/>
            <stop offset=".26" stop-color="#00beff"/>
            <stop offset=".512" stop-color="#00d2ff"/>
            <stop offset=".76" stop-color="#00dfff"/>
            <stop offset="1" stop-color="#00e3ff"/>
        </linearGradient>
        <linearGradient id="linear-gradient-2" x1="1.076" y1="17.098" x2="-1.305" y2="17.098" gradientUnits="objectBoundingBox">
            <stop offset="0" stop-color="#ffe000"/>
            <stop offset=".409" stop-color="#ffbd00"/>
            <stop offset=".775" stop-color="orange"/>
            <stop offset="1" stop-color="#ff9c00"/>
        </linearGradient>
        <linearGradient id="linear-gradient-3" x1=".862" y1="10.863" x2="-.501" y2="9.093" gradientUnits="objectBoundingBox">
            <stop offset="0" stop-color="#ff3a44"/>
            <stop offset="1" stop-color="#c31162"/>
        </linearGradient>
        <linearGradient id="linear-gradient-4" x1="-.188" y1="13.583" x2=".421" y2="12.793" gradientUnits="objectBoundingBox">
            <stop offset="0" stop-color="#32a071"/>
            <stop offset=".068" stop-color="#2da771"/>
            <stop offset=".476" stop-color="#15cf74"/>
            <stop offset=".801" stop-color="#06e775"/>
            <stop offset="1" stop-color="#00f076"/>
        </linearGradient>
        <style>
            .cls-7{isolation:isolate;opacity:.12}
        </style>
    </defs>
    <g id="패스_15628" data-name="패스 15628" style="fill:#fff">
        <path d="M104 31.5H16c-4.14 0-8.033-1.612-10.96-4.54A15.399 15.399 0 0 1 .5 16c0-4.14 1.612-8.033 4.54-10.96A15.399 15.399 0 0 1 16 .5h88c4.14 0 8.033 1.612 10.96 4.54A15.399 15.399 0 0 1 119.5 16c0 4.14-1.612 8.033-4.54 10.96A15.399 15.399 0 0 1 104 31.5z" style="stroke:none"/>
        <path d="M16 1C11.993 1 8.227 2.56 5.393 5.393A14.902 14.902 0 0 0 1 16c0 4.007 1.56 7.773 4.393 10.607A14.902 14.902 0 0 0 16 31h88c4.007 0 7.773-1.56 10.607-4.393A14.902 14.902 0 0 0 119 16c0-4.007-1.56-7.773-4.393-10.607A14.902 14.902 0 0 0 104 1H16m0-1h88c8.837 0 16 7.163 16 16s-7.163 16-16 16H16C7.163 32 0 24.837 0 16S7.163 0 16 0z" style="fill:#d9d9d9;stroke:none"/>
    </g>
    <g id="그룹_16001" data-name="그룹 16001" transform="translate(18 7.999)">
        <g id="그룹_16019" data-name="그룹 16019" transform="translate(0 -1)">
            <path id="패스_11112" data-name="패스 11112" d="M70.857 30.488a3.11 3.11 0 1 0 3.122 3.11 3.066 3.066 0 0 0-3.122-3.11zm0 5a1.89 1.89 0 1 1 1.755-1.888 1.8 1.8 0 0 1-1.755 1.883zm-6.811-5a3.11 3.11 0 1 0 3.122 3.11 3.066 3.066 0 0 0-3.122-3.11zm0 5A1.89 1.89 0 1 1 65.8 33.6a1.8 1.8 0 0 1-1.754 1.883zm-8.1-4.041v1.319H59.1a2.754 2.754 0 0 1-.718 1.661 3.233 3.233 0 0 1-2.439.966 3.511 3.511 0 0 1 0-7.022 3.364 3.364 0 0 1 2.38.943l.931-.931a4.6 4.6 0 0 0-3.311-1.332 4.831 4.831 0 1 0 0 9.662 4.414 4.414 0 0 0 3.369-1.355 4.36 4.36 0 0 0 1.143-3.087 4.263 4.263 0 0 0-.071-.824zm33.136 1.025a2.891 2.891 0 0 0-2.663-1.979 2.955 2.955 0 0 0-2.933 3.11 3.044 3.044 0 0 0 3.087 3.11 3.093 3.093 0 0 0 2.592-1.379l-1.06-.707a1.777 1.777 0 0 1-1.531.86 1.583 1.583 0 0 1-1.509-.942l4.155-1.725zM84.837 33.5a1.706 1.706 0 0 1 1.626-1.814 1.2 1.2 0 0 1 1.155.66zm-3.381 3.02h1.366v-9.143h-1.366zm-2.239-5.337h-.047a2.156 2.156 0 0 0-1.637-.695 3.113 3.113 0 0 0 0 6.221A2.119 2.119 0 0 0 79.17 36h.047v.448c0 1.19-.636 1.826-1.661 1.826a1.721 1.721 0 0 1-1.567-1.108l-1.19.5a2.964 2.964 0 0 0 2.757 1.834c1.6 0 2.958-.943 2.958-3.24v-5.584h-1.3zm-1.567 4.3a1.892 1.892 0 0 1 0-3.77 1.9 1.9 0 0 1 0 3.77zm17.831-8.105h-3.27v9.142h1.364v-3.464h1.906a2.844 2.844 0 1 0 0-5.679zm.035 4.406h-1.941V28.65h1.941a1.567 1.567 0 1 1 0 3.134zm8.434-1.313a2.563 2.563 0 0 0-2.435 1.4l1.212.506a1.293 1.293 0 0 1 1.247-.671 1.314 1.314 0 0 1 1.435 1.177v.094a3.019 3.019 0 0 0-1.423-.353c-1.305 0-2.635.717-2.635 2.058a2.113 2.113 0 0 0 2.27 2.012 1.926 1.926 0 0 0 1.741-.894h.047v.7h1.317V33a2.507 2.507 0 0 0-2.776-2.529zm-.165 5.01c-.448 0-1.071-.223-1.071-.776 0-.706.776-.976 1.447-.976a2.435 2.435 0 0 1 1.247.306 1.654 1.654 0 0 1-1.623 1.447zm7.739-4.811-1.564 3.964h-.047l-1.624-3.964h-1.47l2.435 5.54-1.388 3.082h1.423l3.752-8.622zm-12.291 5.85h1.367v-9.142h-1.367z" transform="translate(-29.422 -23.046)"/>
            <g id="그룹_15994" data-name="그룹 15994" transform="translate(0 .001)">
                <path id="패스_11072" data-name="패스 11072" d="M20.285 17.514a1.355 1.355 0 0 0-.312.948v14.927a1.353 1.353 0 0 0 .312.948l.05.049 8.365-8.362v-.2l-8.361-8.362z" transform="translate(-19.973 -17.246)" style="fill:url(#linear-gradient)"/>
                <path id="패스_11073" data-name="패스 11073" d="M35.685 31.5 32.9 28.709v-.2l2.788-2.788.063.036 3.3 1.876a1.025 1.025 0 0 1 0 1.948l-3.3 1.876z" transform="translate(-24.175 -19.931)" style="fill:url(#linear-gradient-2)"/>
                <path id="패스_11074" data-name="패스 11074" d="M31.7 32.852 28.846 30l-8.411 8.411a1.1 1.1 0 0 0 1.4.041l9.859-5.6" transform="translate(-20.123 -21.321)" style="fill:url(#linear-gradient-3)"/>
                <path id="패스_11075" data-name="패스 11075" d="m31.7 22.969-9.859-5.6a1.1 1.1 0 0 0-1.4.041l8.411 8.411z" transform="translate(-20.123 -17.14)" style="fill:url(#linear-gradient-4)"/>
                <g id="그룹_15971" data-name="그룹 15971" transform="translate(0 11.468)">
                    <path id="패스_11076" data-name="패스 11076" d="m31.634 34.132-9.8 5.566a1.124 1.124 0 0 1-1.352.007l-.051.05.05.049a1.124 1.124 0 0 0 1.352-.007l9.859-5.6z" transform="translate(-20.123 -34.132)" style="isolation:isolate;opacity:.2"/>
                    <path id="패스_11077" data-name="패스 11077" class="cls-7" d="M20.285 41.861a1.353 1.353 0 0 1-.312-.948v.1a1.351 1.351 0 0 0 .312.948l.051-.05z" transform="translate(-19.973 -36.337)"/>
                </g>
                <path id="패스_11078" data-name="패스 11078" class="cls-7" d="m40.394 30.877-3.365 1.912.063.063 3.3-1.876A1.185 1.185 0 0 0 41.1 30a1.256 1.256 0 0 1-.706.877z" transform="translate(-25.518 -21.321)"/>
                <path id="패스_11079" data-name="패스 11079" d="m21.688 17.466 13.161 7.478a1.256 1.256 0 0 1 .707.876 1.183 1.183 0 0 0-.707-.975l-13.161-7.477c-.944-.536-1.715-.09-1.715.989v.1c0-1.081.771-1.527 1.715-.991z" transform="translate(-19.973 -17.14)" style="opacity:.25;isolation:isolate;fill:#fff"/>
            </g>
        </g>
    </g>
</svg>
