<svg id="구성_요소_245_1" data-name="구성 요소 245 – 1" xmlns="http://www.w3.org/2000/svg" width="152.002" height="64.005">
    <defs>
        <style>
            .cls-1{fill:#fff}.cls-2{fill:#555}.cls-3{fill:none;opacity:0}.cls-4{fill:#f56400}.cls-5,.cls-6,.cls-7{stroke:none}.cls-6{fill:#d9d9d9}.cls-7{fill:#f56400}
        </style>
    </defs>
    <g id="ic_facebook_32" transform="translate(0 .002)">
        <g id="패스_11122" data-name="패스 11122" class="cls-1">
            <path class="cls-5" d="M16 31.5c-4.14 0-8.033-1.612-10.96-4.54A15.399 15.399 0 0 1 .5 16c0-4.14 1.612-8.033 4.54-10.96A15.399 15.399 0 0 1 16 .5c4.14 0 8.033 1.612 10.96 4.54A15.399 15.399 0 0 1 31.5 16c0 4.14-1.612 8.033-4.54 10.96A15.399 15.399 0 0 1 16 31.5z"/>
            <path class="cls-6" d="M16 1C11.993 1 8.227 2.56 5.393 5.393A14.902 14.902 0 0 0 1 16c0 4.007 1.56 7.773 4.393 10.607A14.902 14.902 0 0 0 16 31c4.007 0 7.773-1.56 10.607-4.393A14.902 14.902 0 0 0 31 16c0-4.007-1.56-7.773-4.393-10.607A14.902 14.902 0 0 0 16 1m0-1c8.837 0 16 7.163 16 16s-7.163 16-16 16S0 24.837 0 16 7.163 0 16 0z"/>
        </g>
        <path id="Icon_awesome-facebook-f" data-name="Icon awesome-facebook-f" class="cls-2" d="m8.151 7.352.363-2.365h-2.27V3.451a1.183 1.183 0 0 1 1.334-1.277h1.031V.16A12.583 12.583 0 0 0 6.778 0a2.888 2.888 0 0 0-3.091 3.184v1.8H1.609v2.368h2.078v5.718h2.557V7.352z" transform="translate(10.891 9.465)"/>
    </g>
    <g id="ic_instargram_32" transform="translate(40)">
        <g id="패스_8904" data-name="패스 8904" class="cls-1">
            <path class="cls-5" d="M16 31.5c-4.14 0-8.033-1.613-10.96-4.54A15.398 15.398 0 0 1 .5 16c0-4.14 1.612-8.033 4.54-10.96A15.398 15.398 0 0 1 16 .5c4.14 0 8.032 1.612 10.96 4.54A15.398 15.398 0 0 1 31.5 16c0 4.14-1.613 8.032-4.54 10.96A15.398 15.398 0 0 1 16 31.5z" transform="translate(0 .001)"/>
            <path class="cls-6" d="M16 1C11.993 1 8.226 2.56 5.393 5.393A14.902 14.902 0 0 0 1 16c0 4.006 1.56 7.773 4.393 10.606A14.902 14.902 0 0 0 16 31c4.006 0 7.773-1.56 10.606-4.394A14.902 14.902 0 0 0 31 16c0-4.007-1.56-7.774-4.394-10.607A14.902 14.902 0 0 0 16 1m0-1c8.836 0 16 7.163 16 16 0 8.836-7.164 16-16 16-8.837 0-16-7.164-16-16C0 7.163 7.163 0 16 0z" transform="translate(0 .001)"/>
        </g>
        <path id="패스_10939" data-name="패스 10939" class="cls-2" d="M1060.917 813.425c-2.867 0-5.59-.255-6.63 2.412a13.769 13.769 0 0 0-.367 4.58 14.574 14.574 0 0 0 .367 4.58c1.037 2.669 3.783 2.412 6.628 2.412 2.746 0 5.577.286 6.63-2.412.431-1.113.367-2.522.367-4.58 0-2.732.151-4.495-1.175-5.819-1.342-1.342-3.158-1.174-5.823-1.174zm-.626 1.26c5.98-.009 6.742-.674 6.322 8.555-.149 3.265-2.637 2.906-5.694 2.906-5.575 0-5.735-.16-5.735-5.732 0-5.638.442-5.726 5.108-5.731zm4.362 1.161a.839.839 0 1 0 .839.839.839.839 0 0 0-.839-.839zm-3.735.98a3.591 3.591 0 1 0 3.593 3.591 3.592 3.592 0 0 0-3.593-3.591zm0 1.261a2.331 2.331 0 0 1 0 4.662 2.331 2.331 0 0 1 0-4.662zm0 0" transform="translate(-1044.917 -804.417)"/>
    </g>
    <g id="ic_youtube_32" transform="translate(119.999)">
        <g id="패스_10929" data-name="패스 10929" class="cls-1">
            <path class="cls-5" d="M16.001 31.503a15.4 15.4 0 0 1-10.96-4.54A15.4 15.4 0 0 1 .5 16a15.4 15.4 0 0 1 4.54-10.96A15.4 15.4 0 0 1 16.001.5a15.4 15.4 0 0 1 10.962 4.54 15.4 15.4 0 0 1 4.54 10.961c0 4.422-1.876 8.562-5.283 11.658-2.683 2.443-6.407 3.844-10.219 3.844z"/>
            <path class="cls-6" d="M16.001 1C11.994 1 8.227 2.56 5.394 5.394A14.903 14.903 0 0 0 1 16c0 4.007 1.56 7.775 4.394 10.608A14.903 14.903 0 0 0 16 31.003c3.69 0 7.29-1.354 9.882-3.714 3.302-3 5.12-7.009 5.12-11.288 0-4.007-1.56-7.774-4.394-10.607A14.903 14.903 0 0 0 16.001 1m0-1c8.838 0 16.002 7.164 16.002 16.001 0 4.693-2.02 8.914-5.447 12.028-2.633 2.398-6.41 3.974-10.555 3.974C7.164 32.003 0 24.839 0 16 0 7.164 7.164 0 16.001 0z"/>
        </g>
        <path id="Icon_simple-youtube" data-name="Icon simple-youtube" class="cls-2" d="M13.715 6.935A1.755 1.755 0 0 0 12.5 5.716a42.043 42.043 0 0 0-5.483-.292 41.1 41.1 0 0 0-5.483.292A1.755 1.755 0 0 0 .312 6.935a18.234 18.234 0 0 0-.3 3.388 18.234 18.234 0 0 0 .3 3.375 1.755 1.755 0 0 0 1.218 1.217 41.951 41.951 0 0 0 5.483.293 42.051 42.051 0 0 0 5.483-.293 1.755 1.755 0 0 0 1.219-1.215 18.234 18.234 0 0 0 .292-3.375 18.234 18.234 0 0 0-.292-3.388zm-8.1 5.483V8.22l3.655 2.1z" transform="translate(8.993 5.685)"/>
    </g>
    <g id="ic_blog_32" transform="translate(80)">
        <g id="패스_11121" data-name="패스 11121" class="cls-1">
            <path class="cls-5" d="M16 31.5c-4.14 0-8.033-1.612-10.96-4.54A15.399 15.399 0 0 1 .5 16c0-4.14 1.612-8.033 4.54-10.96A15.399 15.399 0 0 1 16 .5c4.14 0 8.033 1.612 10.96 4.54A15.399 15.399 0 0 1 31.5 16c0 4.14-1.612 8.033-4.54 10.96A15.399 15.399 0 0 1 16 31.5z"/>
            <path class="cls-6" d="M16 1C11.993 1 8.227 2.56 5.393 5.393A14.902 14.902 0 0 0 1 16c0 4.007 1.56 7.773 4.393 10.607A14.902 14.902 0 0 0 16 31c4.007 0 7.773-1.56 10.607-4.393A14.902 14.902 0 0 0 31 16c0-4.007-1.56-7.773-4.393-10.607A14.902 14.902 0 0 0 16 1m0-1c8.837 0 16 7.163 16 16s-7.163 16-16 16S0 24.837 0 16 7.163 0 16 0z"/>
        </g>
        <g id="그룹_15783" data-name="그룹 15783" transform="translate(-575.458 -759.429)">
            <path id="패스_10946" data-name="패스 10946" class="cls-2" d="M633 859.853a.489.489 0 1 0 .489.489.489.489 0 0 0-.489-.489z" transform="translate(-45.483 -84.698)"/>
            <circle id="타원_1275" data-name="타원 1275" class="cls-2" cx=".526" cy=".526" r=".526" transform="rotate(-45 1232.035 -326.223)"/>
            <path id="패스_10947" data-name="패스 10947" class="cls-2" d="M596.585 770.369h-10.254a1.873 1.873 0 0 0-1.873 1.873v6.086a1.873 1.873 0 0 0 1.873 1.873h3.622l1.232 2.9s.085.252.29.252c.205 0 .29-.252.29-.252L593 780.2h3.589a1.873 1.873 0 0 0 1.873-1.873v-6.086a1.873 1.873 0 0 0-1.877-1.872zm-7.729 5.38a1.16 1.16 0 0 1-1.156 1.144.962.962 0 0 1-.7-.295v.2h-.838v-3.455c.052.008.838 0 .838 0v1.321c.2-.336.767-.33.767-.33a1.227 1.227 0 0 1 1.089 1.415zm1.475-1.31v2.361h-.82v-2.342c0-.319-.4-.407-.4-.407v-.826a1.134 1.134 0 0 1 1.22 1.214zm1.944 2.455a1.27 1.27 0 1 1 1.374-1.265 1.323 1.323 0 0 1-1.374 1.266zm4.492 0a1.17 1.17 0 0 1-1.209 1.2h-.372v-.779h.224s.513.047.507-.743c0 0-.1.32-.82.32a1.081 1.081 0 0 1-1.021-1.069v-.377a1.166 1.166 0 0 1 1.144-1.115.835.835 0 0 1 .714.319v-.25h.832z"/>
            <circle id="타원_1276" data-name="타원 1276" class="cls-2" cx=".514" cy=".514" r=".514" transform="translate(594.944 775.116)"/>
        </g>
    </g>
    <g id="ic_facebook_32-2" data-name="ic_facebook_32" transform="translate(0 32.004)">
        <g id="패스_11122-2" data-name="패스 11122" class="cls-1">
            <path class="cls-5" d="M16 31.5c-4.14 0-8.033-1.612-10.96-4.54A15.399 15.399 0 0 1 .5 16c0-4.14 1.612-8.033 4.54-10.96A15.399 15.399 0 0 1 16 .5c4.14 0 8.033 1.612 10.96 4.54A15.399 15.399 0 0 1 31.5 16c0 4.14-1.612 8.033-4.54 10.96A15.399 15.399 0 0 1 16 31.5z"/>
            <path class="cls-7" d="M16 1C11.993 1 8.227 2.56 5.393 5.393A14.902 14.902 0 0 0 1 16c0 4.007 1.56 7.773 4.393 10.607A14.902 14.902 0 0 0 16 31c4.007 0 7.773-1.56 10.607-4.393A14.902 14.902 0 0 0 31 16c0-4.007-1.56-7.773-4.393-10.607A14.902 14.902 0 0 0 16 1m0-1c8.837 0 16 7.163 16 16s-7.163 16-16 16S0 24.837 0 16 7.163 0 16 0z"/>
        </g>
        <path id="Icon_awesome-facebook-f-2" data-name="Icon awesome-facebook-f" class="cls-4" d="m8.151 7.352.363-2.365h-2.27V3.451a1.183 1.183 0 0 1 1.334-1.277h1.031V.16A12.583 12.583 0 0 0 6.778 0a2.888 2.888 0 0 0-3.091 3.184v1.8H1.609v2.368h2.078v5.718h2.557V7.352z" transform="translate(10.891 9.465)"/>
    </g>
    <g id="ic_instargram_32-2" data-name="ic_instargram_32" transform="translate(40 32.002)">
        <g id="패스_8904-2" data-name="패스 8904" class="cls-1">
            <path class="cls-5" d="M16 31.5c-4.14 0-8.033-1.613-10.96-4.54A15.398 15.398 0 0 1 .5 16c0-4.14 1.612-8.033 4.54-10.96A15.398 15.398 0 0 1 16 .5c4.14 0 8.032 1.612 10.96 4.54A15.398 15.398 0 0 1 31.5 16c0 4.14-1.613 8.032-4.54 10.96A15.398 15.398 0 0 1 16 31.5z" transform="translate(0 .001)"/>
            <path class="cls-7" d="M16 1C11.993 1 8.226 2.56 5.393 5.393A14.902 14.902 0 0 0 1 16c0 4.006 1.56 7.773 4.393 10.606A14.902 14.902 0 0 0 16 31c4.006 0 7.773-1.56 10.606-4.394A14.902 14.902 0 0 0 31 16c0-4.007-1.56-7.774-4.394-10.607A14.902 14.902 0 0 0 16 1m0-1c8.836 0 16 7.163 16 16 0 8.836-7.164 16-16 16-8.837 0-16-7.164-16-16C0 7.163 7.163 0 16 0z" transform="translate(0 .001)"/>
        </g>
        <path id="패스_10939-2" data-name="패스 10939" class="cls-4" d="M1060.917 813.425c-2.867 0-5.59-.255-6.63 2.412a13.769 13.769 0 0 0-.367 4.58 14.574 14.574 0 0 0 .367 4.58c1.037 2.669 3.783 2.412 6.628 2.412 2.746 0 5.577.286 6.63-2.412.431-1.113.367-2.522.367-4.58 0-2.732.151-4.495-1.175-5.819-1.342-1.342-3.158-1.174-5.823-1.174zm-.626 1.26c5.98-.009 6.742-.674 6.322 8.555-.149 3.265-2.637 2.906-5.694 2.906-5.575 0-5.735-.16-5.735-5.732 0-5.638.442-5.726 5.108-5.731zm4.362 1.161a.839.839 0 1 0 .839.839.839.839 0 0 0-.839-.839zm-3.735.98a3.591 3.591 0 1 0 3.593 3.591 3.592 3.592 0 0 0-3.593-3.591zm0 1.261a2.331 2.331 0 0 1 0 4.662 2.331 2.331 0 0 1 0-4.662zm0 0" transform="translate(-1044.917 -804.417)"/>
    </g>
    <g id="ic_youtube_32-2" data-name="ic_youtube_32" transform="translate(119.999 32.002)">
        <g id="패스_10929-2" data-name="패스 10929" class="cls-1">
            <path class="cls-5" d="M16.001 31.503a15.4 15.4 0 0 1-10.96-4.54A15.4 15.4 0 0 1 .5 16a15.4 15.4 0 0 1 4.54-10.96A15.4 15.4 0 0 1 16.001.5a15.4 15.4 0 0 1 10.962 4.54 15.4 15.4 0 0 1 4.54 10.961c0 4.422-1.876 8.562-5.283 11.658-2.683 2.443-6.407 3.844-10.219 3.844z"/>
            <path class="cls-7" d="M16.001 1C11.994 1 8.227 2.56 5.394 5.394A14.903 14.903 0 0 0 1 16c0 4.007 1.56 7.775 4.394 10.608A14.903 14.903 0 0 0 16 31.003c3.69 0 7.29-1.354 9.882-3.714 3.302-3 5.12-7.009 5.12-11.288 0-4.007-1.56-7.774-4.394-10.607A14.903 14.903 0 0 0 16.001 1m0-1c8.838 0 16.002 7.164 16.002 16.001 0 4.693-2.02 8.914-5.447 12.028-2.633 2.398-6.41 3.974-10.555 3.974C7.164 32.003 0 24.839 0 16 0 7.164 7.164 0 16.001 0z"/>
        </g>
        <path id="Icon_simple-youtube-2" data-name="Icon simple-youtube" class="cls-4" d="M13.715 6.935A1.755 1.755 0 0 0 12.5 5.716a42.043 42.043 0 0 0-5.483-.292 41.1 41.1 0 0 0-5.483.292A1.755 1.755 0 0 0 .312 6.935a18.234 18.234 0 0 0-.3 3.388 18.234 18.234 0 0 0 .3 3.375 1.755 1.755 0 0 0 1.218 1.217 41.951 41.951 0 0 0 5.483.293 42.051 42.051 0 0 0 5.483-.293 1.755 1.755 0 0 0 1.219-1.215 18.234 18.234 0 0 0 .292-3.375 18.234 18.234 0 0 0-.292-3.388zm-8.1 5.483V8.22l3.655 2.1z" transform="translate(8.993 5.685)"/>
    </g>
    <g id="ic_blog_32-2" data-name="ic_blog_32" transform="translate(80 32.002)">
        <g id="패스_11121-2" data-name="패스 11121" class="cls-1">
            <path class="cls-5" d="M16 31.5c-4.14 0-8.033-1.612-10.96-4.54A15.399 15.399 0 0 1 .5 16c0-4.14 1.612-8.033 4.54-10.96A15.399 15.399 0 0 1 16 .5c4.14 0 8.033 1.612 10.96 4.54A15.399 15.399 0 0 1 31.5 16c0 4.14-1.612 8.033-4.54 10.96A15.399 15.399 0 0 1 16 31.5z"/>
            <path class="cls-7" d="M16 1C11.993 1 8.227 2.56 5.393 5.393A14.902 14.902 0 0 0 1 16c0 4.007 1.56 7.773 4.393 10.607A14.902 14.902 0 0 0 16 31c4.007 0 7.773-1.56 10.607-4.393A14.902 14.902 0 0 0 31 16c0-4.007-1.56-7.773-4.393-10.607A14.902 14.902 0 0 0 16 1m0-1c8.837 0 16 7.163 16 16s-7.163 16-16 16S0 24.837 0 16 7.163 0 16 0z"/>
        </g>
        <g id="그룹_15783-2" data-name="그룹 15783" transform="translate(-575.458 -759.429)">
            <path id="패스_10946-2" data-name="패스 10946" class="cls-4" d="M633 859.853a.489.489 0 1 0 .489.489.489.489 0 0 0-.489-.489z" transform="translate(-45.483 -84.698)"/>
            <circle id="타원_1275-2" data-name="타원 1275" class="cls-4" cx=".526" cy=".526" r=".526" transform="rotate(-45 1232.035 -326.223)"/>
            <path id="패스_10947-2" data-name="패스 10947" class="cls-4" d="M596.585 770.369h-10.254a1.873 1.873 0 0 0-1.873 1.873v6.086a1.873 1.873 0 0 0 1.873 1.873h3.622l1.232 2.9s.085.252.29.252c.205 0 .29-.252.29-.252L593 780.2h3.589a1.873 1.873 0 0 0 1.873-1.873v-6.086a1.873 1.873 0 0 0-1.877-1.872zm-7.729 5.38a1.16 1.16 0 0 1-1.156 1.144.962.962 0 0 1-.7-.295v.2h-.838v-3.455c.052.008.838 0 .838 0v1.321c.2-.336.767-.33.767-.33a1.227 1.227 0 0 1 1.089 1.415zm1.475-1.31v2.361h-.82v-2.342c0-.319-.4-.407-.4-.407v-.826a1.134 1.134 0 0 1 1.22 1.214zm1.944 2.455a1.27 1.27 0 1 1 1.374-1.265 1.323 1.323 0 0 1-1.374 1.266zm4.492 0a1.17 1.17 0 0 1-1.209 1.2h-.372v-.779h.224s.513.047.507-.743c0 0-.1.32-.82.32a1.081 1.081 0 0 1-1.021-1.069v-.377a1.166 1.166 0 0 1 1.144-1.115.835.835 0 0 1 .714.319v-.25h.832z"/>
            <circle id="타원_1276-2" data-name="타원 1276" class="cls-4" cx=".514" cy=".514" r=".514" transform="translate(594.944 775.116)"/>
        </g>
    </g>
</svg>
