<svg width="80" height="80" viewBox="0 0 80 80" fill="none" xmlns="http://www.w3.org/2000/svg">
<path d="M38.6457 46.8959L38.6442 46.8946C34.1188 42.6775 30.4416 39.2445 27.8842 36.0291C25.3385 32.8286 24 29.961 24 26.891C24 21.8617 27.8116 18 32.625 18C35.3574 18 38.0044 19.3125 39.7325 21.3816C39.9225 21.6091 40.2036 21.7406 40.5 21.7406C40.7964 21.7406 41.0775 21.6091 41.2675 21.3816C42.9956 19.3125 45.6426 18 48.375 18C53.1884 18 57 21.8617 57 26.891C57 29.961 55.6615 32.8286 53.1158 36.0291C50.5584 39.2445 46.8812 42.6775 42.3558 46.8946L42.3543 46.8959L40.5 48.6306L38.6457 46.8959Z" fill="white" stroke="white" stroke-width="2" stroke-linejoin="round"/>
<path d="M23.8368 77V73.5722C23.8368 73.3459 23.76 73.1262 23.619 72.9492L11.4201 57.6338C11.341 57.5345 11.2816 57.4211 11.2449 57.2996L5.0603 36.8009C5.04163 36.739 5.02884 36.6763 5.0234 36.6119C4.8489 34.5457 5.5742 31.3347 9.80406 34.0309C9.9613 34.1312 10.0875 34.2796 10.1644 34.4495L15.7451 46.781M22.5832 57.4835L16.3596 48.1073C16.3299 48.0626 16.3038 48.0155 16.2817 47.9666L15.7451 46.781M37 77V63.7792C37 62.7299 36.3732 60.6314 35.1195 59.3723C33.9983 58.2461 26.1351 50.7682 22.5832 46.781C20.0759 43.9664 17.2951 43.759 15.7451 46.781" stroke="white" stroke-width="2"/>
<path d="M56.1632 77V73.5722C56.1632 73.3459 56.24 73.1262 56.381 72.9492L68.5799 57.6338C68.659 57.5345 68.7184 57.4211 68.7551 57.2996L74.9397 36.8009C74.9584 36.739 74.9712 36.6763 74.9766 36.6119C75.1511 34.5457 74.4258 31.3347 70.1959 34.0309C70.0387 34.1312 69.9125 34.2796 69.8356 34.4495L64.2549 46.781M57.4168 57.4835L63.6404 48.1073C63.6701 48.0626 63.6962 48.0155 63.7183 47.9666L64.2549 46.781M43 77V63.7792C43 62.7299 43.6268 60.6314 44.8805 59.3723C46.0017 58.2461 53.8649 50.7682 57.4168 46.781C59.9241 43.9664 62.7049 43.759 64.2549 46.781" stroke="white" stroke-width="2"/>
<path d="M22 3V5" stroke="white" stroke-width="2" stroke-linecap="round"/>
<path d="M22 9V11" stroke="white" stroke-width="2" stroke-linecap="round"/>
<path d="M26 7L24 7" stroke="white" stroke-width="2" stroke-linecap="round"/>
<path d="M20 7L18 7" stroke="white" stroke-width="2" stroke-linecap="round"/>
<path d="M9 15V16" stroke="white" stroke-width="2" stroke-linecap="round"/>
<path d="M9 20V21" stroke="white" stroke-width="2" stroke-linecap="round"/>
<path d="M12 18L11 18" stroke="white" stroke-width="2" stroke-linecap="round"/>
<path d="M7 18L6 18" stroke="white" stroke-width="2" stroke-linecap="round"/>
<path d="M68 11V12" stroke="white" stroke-width="2" stroke-linecap="round"/>
<path d="M68 16V17" stroke="white" stroke-width="2" stroke-linecap="round"/>
<path d="M71 14L70 14" stroke="white" stroke-width="2" stroke-linecap="round"/>
<path d="M66 14L65 14" stroke="white" stroke-width="2" stroke-linecap="round"/>
</svg>
