<svg width="80" height="80" viewBox="0 0 80 80" fill="none" xmlns="http://www.w3.org/2000/svg">
<path d="M57 35H69" stroke="white" stroke-width="2" stroke-linecap="round"/>
<path d="M4 75L75 75" stroke="white" stroke-width="2" stroke-linecap="round"/>
<path d="M28 30C28 28.8954 28.8954 28 30 28H49C50.1046 28 51 28.8954 51 30V75H28V30Z" stroke="white" stroke-width="2"/>
<path d="M57 41H65.3137C67 41 69 41.6667 69 44.3333V59.6667V75" stroke="white" stroke-width="2" stroke-linecap="round"/>
<path d="M22 41H13.6863C12 41 10 41.6667 10 44.3333V59.6667V75" stroke="white" stroke-width="2" stroke-linecap="round"/>
<path d="M57 58L62 58M57 51L62 51" stroke="white" stroke-width="2" stroke-linecap="round"/>
<path d="M17 57L22 57M17 50L22 50" stroke="white" stroke-width="2" stroke-linecap="round"/>
<path d="M43 40L36 40M43 48.1L36 48.1M43 67L36 67" stroke="white" stroke-width="2" stroke-linecap="round"/>
<path d="M39.631 25.8823L39.6309 25.8823L39.626 25.8945C39.6102 25.9339 39.5862 25.9615 39.5611 25.979L40.1325 26.7997L39.5611 25.979C39.5384 25.9948 39.5171 26 39.4994 26C39.4817 26 39.4604 25.9948 39.4377 25.979L38.8663 26.7997L39.4377 25.979C39.4145 25.9628 39.3895 25.9348 39.3728 25.8933L39.3729 25.8932L39.3678 25.881L38.3072 23.336C38.3069 23.3353 38.3066 23.3347 38.3064 23.3341C37.285 20.8609 35.4117 18.8653 33.0426 17.7527L33.0394 17.7512L30.1186 16.3923C30.1186 16.3922 30.1185 16.3922 30.1185 16.3922C30.0655 16.3675 30 16.3007 30 16.1581C30 16.0153 30.0655 15.9495 30.1176 15.9253L30.1186 15.9248L32.9488 14.6076L32.952 14.6061C35.3825 13.4642 37.2888 11.3948 38.2915 8.83799C38.2917 8.83748 38.2919 8.83698 38.2921 8.83648L39.366 6.12413L39.3687 6.11749L39.3712 6.11082C39.3875 6.06785 39.4128 6.03866 39.4366 6.02179C39.4596 6.00539 39.4815 6 39.4994 6C39.5173 6 39.5391 6.00539 39.5622 6.02179C39.5859 6.03866 39.6113 6.06785 39.6276 6.11082L39.6302 6.11767L39.6329 6.12449L40.7079 8.83648C40.7082 8.83709 40.7084 8.8377 40.7086 8.83831C41.7114 11.3949 43.6176 13.4642 46.048 14.6061L46.0516 14.6078L48.8804 15.9231C48.8805 15.9231 48.8806 15.9232 48.8808 15.9232C48.9348 15.9486 49 16.0162 49 16.1584C49 16.3008 48.9346 16.3675 48.8814 16.3923L45.9596 17.7512L45.9561 17.7528C43.5867 18.8658 41.7133 20.862 40.6922 23.3359C40.692 23.3364 40.6918 23.3369 40.6916 23.3374L39.631 25.8823Z" fill="white" stroke="white" stroke-width="2"/>
</svg>
