<svg width="76" height="71" viewBox="0 0 76 71" fill="none" xmlns="http://www.w3.org/2000/svg">
<path d="M33.5447 68.7619H14.4766V27.127C14.4766 25.4701 15.8197 24.127 17.4766 24.127H53.6988C55.3556 24.127 56.6988 25.4701 56.6988 27.127V31.2528" stroke="white" stroke-width="2" stroke-linecap="round"/>
<path d="M27.5391 59.111C27.5391 54.3333 31.4122 50.4602 36.1899 50.4602C40.9676 50.4602 44.8407 54.3333 44.8407 59.111V68.9681H27.5391V59.111Z" fill="white" stroke="white" stroke-width="2" stroke-linejoin="round"/>
<mask id="path-3-inside-1_683_130" fill="white">
<rect x="15.6816" y="12.0635" width="39.8095" height="10.8571" rx="1"/>
</mask>
<rect x="15.6816" y="12.0635" width="39.8095" height="10.8571" rx="1" fill="#70D8B9" stroke="white" stroke-width="4" mask="url(#path-3-inside-1_683_130)"/>
<mask id="path-4-inside-2_683_130" fill="white">
<rect x="10.8574" y="16.8889" width="49.4603" height="10.8571" rx="1"/>
</mask>
<rect x="10.8574" y="16.8889" width="49.4603" height="10.8571" rx="1" fill="#70D8B9" stroke="white" stroke-width="4" mask="url(#path-4-inside-2_683_130)"/>
<path d="M61.5294 1.01093L61.7779 2.37442C61.8693 2.87887 62.2641 3.27366 62.7686 3.36504L64.1321 3.61361C64.801 3.73607 65.2451 4.3776 65.1227 5.04655C65.0313 5.551 64.6365 5.94397 64.1321 6.03718L62.7686 6.28575C62.2641 6.37714 61.8693 6.77193 61.7779 7.27638L61.5294 8.63986C61.4069 9.30881 60.7654 9.75295 60.0964 9.63049C59.592 9.5391 59.199 9.14432 59.1058 8.63986L58.8572 7.27638C58.7658 6.77193 58.3711 6.37714 57.8666 6.28575L56.5031 6.03718C55.8342 5.91472 55.39 5.27319 55.5125 4.60424C55.6039 4.09979 55.9987 3.70683 56.5031 3.61361L57.8666 3.36504C58.3711 3.27366 58.7658 2.87887 58.8572 2.37442L59.1058 1.01093C59.2283 0.341984 59.8698 -0.102154 60.5387 0.0203039C61.0432 0.11169 61.4362 0.506479 61.5294 1.01093Z" fill="white"/>
<path d="M73.2896 14.028L73.476 15.0506C73.5446 15.4289 73.8407 15.725 74.219 15.7936L75.2416 15.98C75.7433 16.0718 76.0764 16.553 75.9846 17.0547C75.916 17.433 75.62 17.7277 75.2416 17.7977L74.219 17.9841C73.8407 18.0526 73.5446 18.3487 73.476 18.7271L73.2896 19.7497C73.1978 20.2514 72.7166 20.5845 72.2149 20.4926C71.8366 20.4241 71.5418 20.128 71.4719 19.7497L71.2855 18.7271C71.217 18.3487 70.9209 18.0526 70.5425 17.9841L69.5199 17.7977C69.0182 17.7058 68.6851 17.2247 68.7769 16.723C68.8455 16.3446 69.1416 16.0499 69.5199 15.98L70.5425 15.7936C70.9209 15.725 71.217 15.4289 71.2855 15.0506L71.4719 14.028C71.5638 13.5263 72.0449 13.1932 72.5466 13.285C72.925 13.3535 73.2197 13.6496 73.2896 14.028Z" fill="white"/>
<path d="M4.52788 33.3297L4.71431 34.3523C4.78285 34.7307 5.07894 35.0268 5.45728 35.0953L6.4799 35.2817C6.98161 35.3736 7.31471 35.8547 7.22287 36.3564C7.15433 36.7348 6.85824 37.0295 6.4799 37.0994L5.45728 37.2858C5.07894 37.3544 4.78285 37.6505 4.71431 38.0288L4.52788 39.0514C4.43604 39.5531 3.95489 39.8862 3.45318 39.7944C3.07484 39.7259 2.78012 39.4298 2.71021 39.0514L2.52378 38.0288C2.45524 37.6505 2.15915 37.3544 1.78081 37.2858L0.758199 37.0994C0.256488 37.0076 -0.0766153 36.5264 0.0152279 36.0247C0.0837677 35.6464 0.379859 35.3517 0.758199 35.2817L1.78081 35.0953C2.15915 35.0268 2.45524 34.7307 2.52378 34.3523L2.71021 33.3297C2.80205 32.828 3.2832 32.4949 3.78491 32.5868C4.16325 32.6553 4.45797 32.9514 4.52788 33.3297Z" fill="white"/>
<path d="M24.3184 35.2549H27.9374" stroke="white" stroke-width="2" stroke-linecap="round"/>
<path d="M33.7773 35.2549H37.3964" stroke="white" stroke-width="2" stroke-linecap="round"/>
<path d="M43.4277 34.9841H47.0468" stroke="white" stroke-width="2" stroke-linecap="round"/>
<path d="M24.3184 42.4929H27.9374" stroke="white" stroke-width="2" stroke-linecap="round"/>
<path d="M33.7773 42.4929H37.3964" stroke="white" stroke-width="2" stroke-linecap="round"/>
<path d="M43.4277 42.2222H47.0468" stroke="white" stroke-width="2" stroke-linecap="round"/>
<path d="M72.5817 65.0718C72.5817 66.0993 72.5817 70.5713 72.5817 70.5713H54.9891H37.3965C37.3965 70.5713 37.3965 66.0993 37.3965 65.0718C37.3965 58.153 45.5645 49.4602 54.9891 49.4602C64.7052 49.4602 72.5817 56.9112 72.5817 65.0718Z" fill="#70D8B9"/>
<circle cx="56.0961" cy="44.6349" r="8.65079" fill="#70D8B9" stroke="white" stroke-width="2"/>
<path d="M52.4766 45.8413C52.6776 46.6455 54.1655 48.254 56.0956 48.254C58.0258 48.254 59.3125 46.6455 59.7147 45.8413" stroke="white" stroke-width="2" stroke-linecap="round" stroke-linejoin="round"/>
<path d="M69.968 69.3651V66.3492C69.968 60.9206 64.2957 53.0793 55.7872 53.0793C47.2788 53.0793 41.0156 61.5238 41.0156 66.3492V69.3651" stroke="white" stroke-width="2" stroke-linecap="round" stroke-linejoin="round"/>
</svg>
