<svg data-name="ic_app store_32px" xmlns="http://www.w3.org/2000/svg" width="120" height="32">
    <g data-name="패스 15629" style="fill:#fff">
        <path d="M104 31.5H16c-4.14 0-8.033-1.612-10.96-4.54A15.399 15.399 0 0 1 .5 16c0-4.14 1.612-8.033 4.54-10.96A15.399 15.399 0 0 1 16 .5h88c4.14 0 8.033 1.612 10.96 4.54A15.399 15.399 0 0 1 119.5 16c0 4.14-1.612 8.033-4.54 10.96A15.399 15.399 0 0 1 104 31.5z" style="stroke:none"/>
        <path d="M16 1C11.993 1 8.227 2.56 5.393 5.393A14.902 14.902 0 0 0 1 16c0 4.007 1.56 7.773 4.393 10.607A14.902 14.902 0 0 0 16 31h88c4.007 0 7.773-1.56 10.607-4.393A14.902 14.902 0 0 0 119 16c0-4.007-1.56-7.773-4.393-10.607A14.902 14.902 0 0 0 104 1H16m0-1h88c8.837 0 16 7.163 16 16s-7.163 16-16 16H16C7.163 32 0 24.837 0 16S7.163 0 16 0z" style="fill:#d9d9d9;stroke:none"/>
    </g>
    <g data-name="그룹 15998">
        <g data-name="그룹 15996">
            <path data-name="패스 11113" d="M47.169 17.887H43.46l-.891 2.628H41l3.511-9.725h1.63l3.511 9.725h-1.6zm-3.323-1.213h2.939l-1.45-4.266h-.04z"/>
            <path data-name="패스 11114" d="M57.092 16.794c0 2.2-1.179 3.619-2.958 3.619a2.4 2.4 0 0 1-2.231-1.24h-.033v3.511h-1.456v-9.436h1.408v1.179h.027a2.515 2.515 0 0 1 2.258-1.257c1.8 0 2.985 1.426 2.985 3.624zm-1.5 0c0-1.436-.74-2.379-1.873-2.379-1.112 0-1.86.963-1.86 2.379s.748 2.386 1.86 2.386c1.137 0 1.877-.938 1.877-2.386z"/>
            <path data-name="패스 11115" d="M64.782 16.794c0 2.2-1.179 3.619-2.958 3.619a2.4 2.4 0 0 1-2.227-1.243h-.033v3.511h-1.46v-9.433h1.408v1.179h.027a2.513 2.513 0 0 1 2.258-1.257c1.8 0 2.985 1.426 2.985 3.624zm-1.5 0c0-1.436-.741-2.379-1.873-2.379-1.112 0-1.861.963-1.861 2.379s.749 2.386 1.861 2.386c1.137 0 1.878-.938 1.878-2.386z"/>
            <path data-name="패스 11116" d="M69.791 17.806c.108.964 1.045 1.6 2.325 1.6 1.227 0 2.11-.633 2.11-1.5 0-.755-.532-1.207-1.793-1.517l-1.26-.3c-1.786-.432-2.615-1.266-2.615-2.622 0-1.678 1.463-2.831 3.539-2.831 2.055 0 3.464 1.153 3.511 2.831h-1.47c-.088-.97-.89-1.557-2.063-1.557s-1.974.593-1.974 1.456c0 .687.511 1.091 1.766 1.4l1.071.263c1.994.472 2.824 1.274 2.824 2.7 0 1.819-1.449 2.958-3.754 2.958-2.157 0-3.612-1.112-3.706-2.872z"/>
            <path data-name="패스 11117" d="M78.809 11.748v1.678h1.348v1.153h-1.348v3.908c0 .608.269.89.863.89a4.35 4.35 0 0 0 .477-.033v1.15a4.016 4.016 0 0 1-.808.067c-1.436 0-1.995-.539-1.995-1.914v-4.068h-1.03v-1.153h1.031v-1.678z"/>
            <path data-name="패스 11118" d="M80.847 16.882a3.368 3.368 0 1 1 6.726 0 3.368 3.368 0 1 1-6.726 0zm5.243 0c0-1.493-.7-2.373-1.88-2.373s-1.88.887-1.88 2.373.7 2.373 1.88 2.373 1.88-.873 1.88-2.373z"/>
            <path data-name="패스 11119" d="M88.585 13.424h1.387V14.6h.034a1.685 1.685 0 0 1 1.706-1.252 2.2 2.2 0 0 1 .5.054v1.327a2.081 2.081 0 0 0-.654-.086 1.446 1.446 0 0 0-1.517 1.591v4.1h-1.456z"/>
            <path data-name="패스 11120" d="M98.919 18.309a2.837 2.837 0 0 1-3.053 2.117 3.184 3.184 0 0 1-3.343-3.511c0-2.169 1.287-3.577 3.282-3.577A3.078 3.078 0 0 1 99 16.749v.486h-5.007v.085a1.822 1.822 0 0 0 1.907 1.96 1.607 1.607 0 0 0 1.633-.971zm-4.92-2.06h3.545a1.685 1.685 0 0 0-1.739-1.756 1.775 1.775 0 0 0-1.806 1.756z"/>
        </g>
        <g data-name="그룹 15995">
            <g data-name="그룹 15979">
                <path data-name="패스 11088" d="M32.691 16.331a3.872 3.872 0 0 1 1.862-3.25 4.016 4.016 0 0 0-3.154-1.689c-1.327-.138-2.613.787-3.29.787s-1.73-.773-2.852-.751a4.206 4.206 0 0 0-3.531 2.14c-1.528 2.621-.388 6.474 1.076 8.593.732 1.037 1.588 2.2 2.708 2.155 1.1-.045 1.505-.693 2.828-.693s1.7.693 2.838.667c1.176-.02 1.917-1.043 2.624-2.09a8.518 8.518 0 0 0 1.2-2.421 3.748 3.748 0 0 1-2.309-3.448z"/>
                <path data-name="패스 11089" d="M30.55 9.909A4.06 4.06 0 0 0 31.479 7a4.129 4.129 0 0 0-2.673 1.383 3.861 3.861 0 0 0-.954 2.8 3.415 3.415 0 0 0 2.698-1.274z"/>
            </g>
        </g>
    </g>
</svg>
